<svg width="34" height="37" viewBox="0 0 34 37" fill="none" xmlns="http://www.w3.org/2000/svg">
<rect width="34" height="37" fill="#E5E5E5"/>
<g id="Artboard">
<rect width="1920" height="6930" transform="translate(-936 -1629)" fill="white"/>
<rect id="Background" x="-936" y="-1629" width="1920" height="6930" fill="black" fill-opacity="0.01"/>
<g id="BG" clip-path="url(#clip0_0_1)">
<path id="Rectangle 66" fill-rule="evenodd" clip-rule="evenodd" d="M-954.5 -2336H965.501L984 5286.5L-23.5 5295.5H-942L-954.5 -2336Z" fill="white"/>
</g>
<g id="Service" clip-path="url(#clip1_0_1)">
<g id="Seo Ready" clip-path="url(#clip2_0_1)">
</g>
<g id="Online Marketing" clip-path="url(#clip3_0_1)">
</g>
<g id="App design">
<g id="Name" clip-path="url(#clip4_0_1)">
<rect id="Rectangle 59 copy" x="15" y="-13" width="192" height="72" fill="#F8FCFE" stroke="#EDEFEF"/>
</g>
</g>
<g id="Online Support" clip-path="url(#clip5_0_1)">
<g id="Name_2" clip-path="url(#clip6_0_1)">
<rect id="Rectangle 59 copy_2" x="-175" y="-13" width="193" height="72" fill="#F8FCFE" stroke="#EDEFEF"/>
</g>
</g>
<g id="Web Design" clip-path="url(#clip7_0_1)">
<rect id="Rectangle 238" x="-167.25" y="-12.25" width="190.5" height="71.5" stroke="#18CFAB" stroke-width="1.5"/>
<g id="Rectangle 238_2" filter="url(#filter0_d_0_1)">
<path fill-rule="evenodd" clip-rule="evenodd" d="M19.7749 19.9922L28.475 16.8915L5.09204 4L11.909 29.8705L17.0139 22.1553L23.1258 30L25.8868 27.8368L19.7749 19.9922Z" fill="#363B3E"/>
<path d="M20.5947 20.2308L28.6429 17.3625L29.6888 16.9898L28.7164 16.4537L5.33344 3.56214L4.31107 2.99848L4.60854 4.1274L11.4255 29.9979L11.7099 31.0774L12.326 30.1464L17.047 23.0114L22.7314 30.3073L23.0395 30.7028L23.4341 30.3936L26.1952 28.2304L26.5877 27.9229L26.2812 27.5295L20.5947 20.2308Z" stroke="white" stroke-opacity="0.8"/>
</g>
</g>
</g>
</g>
<defs>
<filter id="filter0_d_0_1" x="0.530098" y="-0.00305176" width="33.3725" height="36.2874" filterUnits="userSpaceOnUse" color-interpolation-filters="sRGB">
<feFlood flood-opacity="0" result="BackgroundImageFix"/>
<feColorMatrix in="SourceAlpha" type="matrix" values="0 0 0 0 0 0 0 0 0 0 0 0 0 0 0 0 0 0 127 0" result="hardAlpha"/>
<feOffset dy="1"/>
<feGaussianBlur stdDeviation="1.5"/>
<feColorMatrix type="matrix" values="0 0 0 0 0 0 0 0 0 0 0 0 0 0 0 0 0 0 0.25 0"/>
<feBlend mode="normal" in2="BackgroundImageFix" result="effect1_dropShadow_0_1"/>
<feBlend mode="normal" in="SourceGraphic" in2="effect1_dropShadow_0_1" result="shape"/>
</filter>
<clipPath id="clip0_0_1">
<rect width="1922" height="11555" fill="white" transform="translate(-937 -1630)"/>
</clipPath>
<clipPath id="clip1_0_1">
<rect width="1160" height="375" fill="white" transform="translate(-556 -152)"/>
</clipPath>
<clipPath id="clip2_0_1">
<rect width="1142" height="236" fill="white" transform="translate(-555 -13)"/>
</clipPath>
<clipPath id="clip3_0_1">
<rect width="953" height="236" fill="white" transform="translate(-555 -13)"/>
</clipPath>
<clipPath id="clip4_0_1">
<rect width="192" height="73" fill="white" transform="translate(15 -13)"/>
</clipPath>
<clipPath id="clip5_0_1">
<rect width="573" height="236" fill="white" transform="translate(-555 -13)"/>
</clipPath>
<clipPath id="clip6_0_1">
<rect width="573" height="236" fill="white" transform="translate(-555 -13)"/>
</clipPath>
<clipPath id="clip7_0_1">
<rect width="1160" height="238" fill="white" transform="translate(-550 -15)"/>
</clipPath>
</defs>
</svg>
